<?xml version="1.0" encoding="utf-8"?>
<!-- Generator: Adobe Illustrator 23.0.0, SVG Export Plug-In . SVG Version: 6.00 Build 0)  -->
<svg version="1.1" id="Camada_1" xmlns="http://www.w3.org/2000/svg" xmlns:xlink="http://www.w3.org/1999/xlink" x="0px" y="0px"
	 viewBox="0 0 100 100" style="enable-background:new 0 0 100 100;" xml:space="preserve">
<style type="text/css">
	.st0{fill:#FF4400;}
	.st1{fill:#1B1B1B;}
</style>
<path class="st0" d="M98.04,50.36c0,26.68-21.63,48.31-48.31,48.31S1.42,77.04,1.42,50.36c0-26.68,21.63-48.31,48.31-48.31
	S98.04,23.67,98.04,50.36"/>
<g>
	<path class="st1" d="M31.47,61.27l18.88-8.63c0.95-0.44,1.95-0.89,2.99-1.33c1.04-0.44,2.01-0.82,2.89-1.14
		c-0.89-0.32-1.84-0.68-2.85-1.09c-1.01-0.41-1.99-0.87-2.94-1.38l-18.41-8.25l3.8-8.83L68,46.27v7.78L35.26,70.09L31.47,61.27z"/>
</g>
</svg>
