<?xml version="1.0" encoding="utf-8"?>
<!-- Generator: Adobe Illustrator 23.0.0, SVG Export Plug-In . SVG Version: 6.00 Build 0)  -->
<svg version="1.1" id="Camada_1" xmlns="http://www.w3.org/2000/svg" xmlns:xlink="http://www.w3.org/1999/xlink" x="0px" y="0px"
	 viewBox="0 0 100 100" style="enable-background:new 0 0 100 100;" xml:space="preserve">
<style type="text/css">
	.st0{fill:#FFFFFF;}
</style>
<g>
	<path class="st0" d="M78.8,42.01c-1.18-2.6-4.02-7.04-9.33-5.54l-16.66-0.04V16.35c11.85,0.36,25.99,4.56,26.65,25.49
		C79.48,42.22,78.96,42.35,78.8,42.01"/>
	<path class="st0" d="M69.59,39.62c0,5.41-4.84,10.36-10.82,10.36c-0.06,0-5.95,0.04-5.95,0.04l0-11.83l16.66,0.04
		C69.55,38.68,69.59,39.15,69.59,39.62"/>
	<path class="st0" d="M51.05,76.51c-22.5-4.18-23.01-24.72-23.01-24.73h-9.03C19.01,68.2,32.79,84,51.11,84
		c15.07,0,24.75-8.74,29.15-16.86C76.68,71.81,68.35,79.73,51.05,76.51"/>
	<line class="st0" x1="28.04" y1="50.08" x2="28.04" y2="50.08"/>
	<path class="st0" d="M54.61,51.85c-0.58-0.03-1.16-0.06-1.76-0.07c-0.01,0-0.02,0-0.03,0H29.81c0,0.01,0.51,20.55,23.01,24.73
		c17.3,3.21,25.63-4.71,29.21-9.37c0,0,0,0,0,0C75.32,56.98,63.65,52.44,54.61,51.85"/>
	<path class="st0" d="M51.05,16.35c-17.76,0.13-32.47,14.86-32.04,33.67h32.04L51.05,16.35z M35.38,31.16
		c0.27-4.46,6.24-4.04,6.33,0C41.43,35.62,35.47,35.19,35.38,31.16"/>
</g>
<g>
	<path d="M91.1,38.46c-1.7-3.73-5.77-10.1-13.38-7.95l-23.9-0.06V1.65c17,0.51,37.28,6.55,38.23,36.57
		C92.06,38.76,91.32,38.95,91.1,38.46"/>
	<path d="M77.88,35.04c0,7.77-6.95,14.85-15.51,14.85c-0.09,0-8.54,0.06-8.54,0.06l0-16.97l23.9,0.06
		C77.82,33.69,77.88,34.35,77.88,35.04"/>
	<path d="M51.29,87.96c-32.27-6-33.01-35.46-33.01-35.48H5.33c0,23.56,19.77,46.21,46.04,46.21c21.62,0,38.03-12.54,44.35-24.18
		C90.58,81.21,76.1,92.57,51.29,87.96"/>
	<line x1="18.28" y1="50.04" x2="18.28" y2="50.04"/>
	<path d="M56.39,52.58c-0.83-0.05-1.67-0.08-2.53-0.1c-0.01,0-0.03,0-0.04,0h-33c0,0.01,0.74,29.48,33.01,35.48
		c24.81,4.61,36.76-6.75,41.89-13.45c0,0,0,0,0,0C86.09,59.93,69.35,53.43,56.39,52.58"/>
	<path d="M51.28,1.65C25.81,1.84,4.71,22.97,5.32,49.95h45.97L51.28,1.65z M28.8,22.9c0.38-6.4,8.95-5.8,9.08,0
		C37.49,29.29,28.93,28.68,28.8,22.9"/>
</g>
</svg>
