<?xml version="1.0" encoding="utf-8"?>
<!-- Generator: Adobe Illustrator 24.1.2, SVG Export Plug-In . SVG Version: 6.00 Build 0)  -->
<svg version="1.1" id="Camada_1" xmlns="http://www.w3.org/2000/svg" xmlns:xlink="http://www.w3.org/1999/xlink" x="0px" y="0px"
	 viewBox="0 0 583 112" style="enable-background:new 0 0 583 112;" xml:space="preserve">
<style type="text/css">
	.st0{fill:#5D7477;}
	.st1{fill:#4A5759;}
	.st2{fill:#00BC2D;}
	.st3{display:none;fill:#FF4400;}
	.st4{fill:#FF4400;}
</style>
<g>
	<g id="Icone_2_">
		<path class="st0" d="M103,44.1c-2-4.4-6.8-12-15.8-9.4l-28.3-0.1l0-34.1c20.1,0.6,44.1,7.8,45.3,43.3
			C104.1,44.4,103.2,44.7,103,44.1z"/>
		<path class="st1" d="M87.3,37.3c0,10.2-8.2,19.4-18.4,19.4c-0.1,0-10.1,0.1-10.1,0.1l0-22.2l28.3,0.1
			C87.3,35.5,87.3,36.4,87.3,37.3z"/>
		<path class="st2" d="M58.8,0.5C28.7,0.7,3.7,25.3,4.4,56.8h54.4L58.8,0.5z M32.2,25.3c0.5-7.5,10.6-6.8,10.7,0
			C42.5,32.7,32.4,32,32.2,25.3z"/>
		<path class="st3" d="M58.8,98.8c29.4,5.5,43.5-8,49.6-15.9c-0.2-0.2-13.7-25.5-49.6-26.1H19.8C19.8,56.8,20.6,91.7,58.8,98.8z"/>
		<path class="st4" d="M58.8,98.8c29.4,5.5,43.5-8,49.6-15.9c-0.2-0.2-13.7-25.5-49.6-26.1l-36.3,0C22.5,56.8,20.6,91.7,58.8,98.8z"
			/>
		<g>
			<path class="st2" d="M59.8,56.8c0.7,0,1.4,0,2.1,0.1C61.2,56.9,60.5,56.8,59.8,56.8z"/>
			<path class="st2" d="M58.8,98.8c-38.2-7.1-39.1-42-39.1-42H4.4c0,27.9,23.4,54.7,54.5,54.7c25.6,0,42-14.8,49.5-28.6
				C102.4,90.8,88.2,104.2,58.8,98.8z"/>
		</g>
	</g>
	<g>
		<path class="st2" d="M152.6,33.4c2.4,0,4.7,0.3,7,1c2.3,0.7,4.3,1.7,6,3c1.7-1.2,3.7-2.1,5.9-2.9c2.2-0.8,4.8-1.1,7.9-1.1
			c2.2,0,4.4,0.3,6.5,0.9c2.1,0.6,4,1.5,5.7,2.8c1.7,1.3,3,2.9,4,5c1,2.1,1.5,4.6,1.5,7.6v27.5c-0.6,0.2-1.5,0.3-2.8,0.5
			c-1.3,0.2-2.5,0.3-3.9,0.3c-1.3,0-2.4-0.1-3.4-0.3c-1-0.2-1.9-0.5-2.6-1c-0.7-0.5-1.2-1.2-1.6-2.1c-0.4-0.9-0.6-2.1-0.6-3.5V50
			c0-1.7-0.5-3-1.5-3.8c-1-0.8-2.3-1.2-4-1.2c-0.8,0-1.7,0.2-2.6,0.6c-0.9,0.4-1.6,0.8-2.1,1.2c0.1,0.2,0.1,0.5,0.1,0.7
			c0,0.2,0,0.4,0,0.6v29.1c-0.6,0.2-1.6,0.3-2.8,0.5c-1.3,0.2-2.5,0.3-3.8,0.3c-1.3,0-2.4-0.1-3.5-0.3c-1-0.2-1.9-0.5-2.6-1
			c-0.7-0.5-1.2-1.2-1.6-2.1c-0.4-0.9-0.6-2.1-0.6-3.5V50c0-1.7-0.5-3-1.6-3.8c-1.1-0.8-2.4-1.2-3.9-1.2c-1,0-2,0.2-2.7,0.5
			c-0.8,0.3-1.4,0.6-1.9,0.9v30.7c-0.6,0.2-1.5,0.3-2.8,0.5c-1.3,0.2-2.5,0.3-3.9,0.3c-1.3,0-2.4-0.1-3.5-0.3c-1-0.2-1.9-0.5-2.6-1
			c-0.7-0.5-1.2-1.2-1.6-2.1c-0.4-0.9-0.6-2.1-0.6-3.5V44.5c0-1.6,0.3-2.8,1-3.8c0.7-0.9,1.6-1.8,2.8-2.6c2-1.4,4.4-2.5,7.4-3.4
			C146.4,33.9,149.4,33.4,152.6,33.4z"/>
		<path class="st2" d="M220.2,33.4c3.1,0,6,0.3,8.6,1c2.6,0.6,4.8,1.6,6.6,2.9c1.8,1.3,3.2,3,4.2,5c1,2,1.5,4.4,1.5,7.1V69
			c0,1.5-0.4,2.8-1.3,3.7c-0.8,1-1.8,1.8-3,2.5c-3.8,2.3-9.1,3.4-16,3.4c-3.1,0-5.9-0.3-8.3-0.9c-2.5-0.6-4.6-1.5-6.4-2.6
			c-1.8-1.2-3.1-2.6-4.1-4.5c-1-1.8-1.4-3.9-1.4-6.3c0-4,1.2-7.1,3.6-9.3c2.4-2.2,6.1-3.5,11.1-4l11.4-1.2v-0.6
			c0-1.7-0.7-2.9-2.2-3.6c-1.5-0.7-3.6-1.1-6.4-1.1c-2.2,0-4.4,0.2-6.5,0.7c-2.1,0.5-4,1-5.7,1.7c-0.8-0.5-1.4-1.3-1.9-2.4
			c-0.5-1.1-0.8-2.2-0.8-3.4c0-1.5,0.4-2.7,1.1-3.6c0.7-0.9,1.8-1.7,3.4-2.3c1.7-0.6,3.7-1.1,6-1.4C216,33.6,218.1,33.4,220.2,33.4z
			 M220.9,67.7c1,0,2.1-0.1,3.3-0.3c1.2-0.2,2.1-0.5,2.7-0.8v-7l-6.3,0.5c-1.6,0.1-3,0.5-4,1c-1,0.6-1.6,1.5-1.6,2.6
			c0,1.2,0.5,2.1,1.4,2.8C217.2,67.4,218.7,67.7,220.9,67.7z"/>
		<path class="st2" d="M261.6,77.1c-0.6,0.2-1.5,0.3-2.8,0.5c-1.3,0.2-2.5,0.3-3.9,0.3c-1.3,0-2.4-0.1-3.4-0.3c-1-0.2-1.9-0.5-2.6-1
			c-0.7-0.5-1.2-1.2-1.6-2.1c-0.4-0.9-0.6-2.1-0.6-3.5V44.7c0-1.3,0.2-2.5,0.7-3.4c0.5-1,1.2-1.8,2.1-2.6c0.9-0.8,2.1-1.4,3.5-2.1
			c1.4-0.6,2.8-1.1,4.4-1.6c1.6-0.5,3.2-0.8,4.9-1.1c1.7-0.3,3.4-0.4,5.1-0.4c2.8,0,5,0.5,6.6,1.6c1.6,1.1,2.4,2.8,2.4,5.3
			c0,0.8-0.1,1.6-0.3,2.4c-0.2,0.8-0.5,1.5-0.9,2.1c-1.2,0-2.5,0.1-3.8,0.2c-1.3,0.1-2.5,0.3-3.8,0.5c-1.2,0.2-2.4,0.5-3.4,0.7
			c-1.1,0.3-2,0.6-2.8,0.9V77.1z"/>
		<path class="st2" d="M295.3,33.4c3.1,0,6,0.3,8.6,1c2.6,0.6,4.8,1.6,6.6,2.9c1.8,1.3,3.2,3,4.2,5c1,2,1.5,4.4,1.5,7.1V69
			c0,1.5-0.4,2.8-1.3,3.7c-0.8,1-1.8,1.8-3,2.5c-3.8,2.3-9.1,3.4-16,3.4c-3.1,0-5.9-0.3-8.3-0.9c-2.5-0.6-4.6-1.5-6.4-2.6
			c-1.8-1.2-3.1-2.6-4.1-4.5c-1-1.8-1.4-3.9-1.4-6.3c0-4,1.2-7.1,3.6-9.3c2.4-2.2,6.1-3.5,11.1-4l11.4-1.2v-0.6
			c0-1.7-0.7-2.9-2.2-3.6c-1.5-0.7-3.6-1.1-6.4-1.1c-2.2,0-4.4,0.2-6.5,0.7c-2.1,0.5-4,1-5.7,1.7c-0.8-0.5-1.4-1.3-1.9-2.4
			c-0.5-1.1-0.8-2.2-0.8-3.4c0-1.5,0.4-2.7,1.1-3.6c0.7-0.9,1.8-1.7,3.4-2.3c1.7-0.6,3.7-1.1,6-1.4
			C291.1,33.6,293.2,33.4,295.3,33.4z M296,67.7c1,0,2.1-0.1,3.3-0.3c1.2-0.2,2.1-0.5,2.7-0.8v-7l-6.3,0.5c-1.6,0.1-3,0.5-4,1
			c-1,0.6-1.6,1.5-1.6,2.6c0,1.2,0.5,2.1,1.4,2.8C292.3,67.4,293.8,67.7,296,67.7z"/>
		<path class="st2" d="M345.8,45.1c-1.5,0-2.8,0.2-4.1,0.7c-1.3,0.5-2.4,1.2-3.4,2.1c-1,0.9-1.7,2-2.3,3.4c-0.6,1.3-0.9,2.9-0.9,4.7
			c0,3.6,1,6.3,3.1,8.1c2.1,1.8,4.6,2.7,7.6,2.7c1.7,0,3.3-0.2,4.5-0.6c1.3-0.4,2.4-0.8,3.4-1.3c1.2,0.8,2,1.7,2.6,2.7
			c0.6,1,0.9,2.1,0.9,3.5c0,2.4-1.1,4.2-3.4,5.5c-2.3,1.3-5.4,2-9.4,2c-3.7,0-7-0.5-10-1.6c-3-1.1-5.5-2.6-7.6-4.5
			c-2.1-2-3.8-4.3-4.9-7c-1.2-2.7-1.7-5.8-1.7-9.1c0-3.8,0.6-7.2,1.9-10.1c1.3-2.9,3-5.3,5.1-7.1c2.2-1.9,4.6-3.3,7.5-4.2
			c2.8-0.9,5.8-1.4,9-1.4c4.2,0,7.4,0.8,9.7,2.3c2.3,1.5,3.4,3.5,3.4,5.9c0,1.1-0.3,2.1-0.8,3.1c-0.5,1-1.1,1.8-1.8,2.5
			c-1-0.5-2.2-0.9-3.6-1.4C348.9,45.3,347.4,45.1,345.8,45.1z"/>
		<path class="st2" d="M378.5,33.4c3.1,0,6,0.3,8.6,1c2.6,0.6,4.8,1.6,6.6,2.9c1.8,1.3,3.2,3,4.2,5c1,2,1.5,4.4,1.5,7.1V69
			c0,1.5-0.4,2.8-1.3,3.7c-0.8,1-1.8,1.8-3,2.5c-3.8,2.3-9.1,3.4-16,3.4c-3.1,0-5.9-0.3-8.3-0.9c-2.5-0.6-4.6-1.5-6.4-2.6
			c-1.8-1.2-3.1-2.6-4.1-4.5c-1-1.8-1.4-3.9-1.4-6.3c0-4,1.2-7.1,3.6-9.3c2.4-2.2,6.1-3.5,11.1-4l11.4-1.2v-0.6
			c0-1.7-0.7-2.9-2.2-3.6c-1.5-0.7-3.6-1.1-6.4-1.1c-2.2,0-4.4,0.2-6.5,0.7c-2.1,0.5-4,1-5.7,1.7c-0.8-0.5-1.4-1.3-1.9-2.4
			c-0.5-1.1-0.8-2.2-0.8-3.4c0-1.5,0.4-2.7,1.1-3.6c0.7-0.9,1.8-1.7,3.4-2.3c1.7-0.6,3.7-1.1,6-1.4
			C374.3,33.6,376.5,33.4,378.5,33.4z M379.2,67.7c1,0,2.1-0.1,3.3-0.3c1.2-0.2,2.1-0.5,2.7-0.8v-7l-6.3,0.5c-1.6,0.1-3,0.5-4,1
			c-1,0.6-1.6,1.5-1.6,2.6c0,1.2,0.5,2.1,1.4,2.8C375.5,67.4,377.1,67.7,379.2,67.7z"/>
		<path class="st2" d="M432,50.3c0-1.8-0.5-3.1-1.5-4c-1-0.8-2.4-1.3-4.1-1.3c-1.2,0-2.3,0.1-3.5,0.4c-1.1,0.3-2.1,0.7-2.9,1.3v30.3
			c-0.6,0.2-1.5,0.3-2.8,0.5c-1.3,0.2-2.5,0.3-3.9,0.3c-1.3,0-2.4-0.1-3.5-0.3c-1-0.2-1.9-0.5-2.6-1c-0.7-0.5-1.2-1.2-1.6-2.1
			c-0.4-0.9-0.6-2.1-0.6-3.5V44.7c0-1.6,0.3-2.9,1-3.8c0.7-1,1.6-1.9,2.8-2.7c2-1.4,4.5-2.5,7.5-3.4c3-0.9,6.3-1.3,10-1.3
			c6.6,0,11.6,1.4,15.2,4.3c3.6,2.9,5.3,6.9,5.3,12v27.3c-0.6,0.2-1.5,0.3-2.8,0.5c-1.3,0.2-2.5,0.3-3.9,0.3c-1.3,0-2.4-0.1-3.4-0.3
			c-1-0.2-1.9-0.5-2.6-1c-0.7-0.5-1.2-1.2-1.6-2.1c-0.4-0.9-0.6-2.1-0.6-3.5V50.3z"/>
		<path class="st2" d="M470,33.4c3.1,0,6,0.3,8.6,1c2.6,0.6,4.8,1.6,6.6,2.9c1.8,1.3,3.2,3,4.2,5c1,2,1.5,4.4,1.5,7.1V69
			c0,1.5-0.4,2.8-1.3,3.7c-0.8,1-1.8,1.8-3,2.5c-3.8,2.3-9.1,3.4-16,3.4c-3.1,0-5.9-0.3-8.3-0.9c-2.5-0.6-4.6-1.5-6.4-2.6
			c-1.8-1.2-3.1-2.6-4.1-4.5c-1-1.8-1.4-3.9-1.4-6.3c0-4,1.2-7.1,3.6-9.3c2.4-2.2,6.1-3.5,11.1-4l11.4-1.2v-0.6
			c0-1.7-0.7-2.9-2.2-3.6c-1.5-0.7-3.6-1.1-6.4-1.1c-2.2,0-4.4,0.2-6.5,0.7c-2.1,0.5-4,1-5.7,1.7c-0.8-0.5-1.4-1.3-1.9-2.4
			c-0.5-1.1-0.8-2.2-0.8-3.4c0-1.5,0.4-2.7,1.1-3.6c0.7-0.9,1.8-1.7,3.4-2.3c1.7-0.6,3.7-1.1,6-1.4C465.8,33.6,467.9,33.4,470,33.4z
			 M470.7,67.7c1,0,2.1-0.1,3.3-0.3c1.2-0.2,2.1-0.5,2.7-0.8v-7l-6.3,0.5c-1.6,0.1-3,0.5-4,1c-1,0.6-1.6,1.5-1.6,2.6
			c0,1.2,0.5,2.1,1.4,2.8C467,67.4,468.5,67.7,470.7,67.7z"/>
		<path class="st2" d="M523.4,50.3c0-1.8-0.5-3.1-1.5-4c-1-0.8-2.4-1.3-4.1-1.3c-1.2,0-2.3,0.1-3.5,0.4c-1.1,0.3-2.1,0.7-2.9,1.3
			v30.3c-0.6,0.2-1.5,0.3-2.8,0.5c-1.3,0.2-2.5,0.3-3.9,0.3c-1.3,0-2.4-0.1-3.5-0.3c-1-0.2-1.9-0.5-2.6-1c-0.7-0.5-1.2-1.2-1.6-2.1
			c-0.4-0.9-0.6-2.1-0.6-3.5V44.7c0-1.6,0.3-2.9,1-3.8c0.7-1,1.6-1.9,2.8-2.7c2-1.4,4.5-2.5,7.5-3.4c3-0.9,6.3-1.3,10-1.3
			c6.6,0,11.6,1.4,15.2,4.3c3.6,2.9,5.3,6.9,5.3,12v27.3c-0.6,0.2-1.5,0.3-2.8,0.5c-1.3,0.2-2.5,0.3-3.9,0.3c-1.3,0-2.4-0.1-3.4-0.3
			c-1-0.2-1.9-0.5-2.6-1c-0.7-0.5-1.2-1.2-1.6-2.1c-0.4-0.9-0.6-2.1-0.6-3.5V50.3z"/>
		<path class="st2" d="M579.8,64.5c0,4.4-1.7,7.9-5,10.4c-3.3,2.5-8.2,3.8-14.7,3.8c-2.4,0-4.7-0.2-6.8-0.5
			c-2.1-0.3-3.9-0.9-5.4-1.6c-1.5-0.7-2.7-1.6-3.5-2.8c-0.8-1.1-1.3-2.4-1.3-3.9c0-1.4,0.3-2.6,0.9-3.5c0.6-1,1.3-1.8,2.1-2.4
			c1.7,0.9,3.6,1.8,5.8,2.5c2.2,0.7,4.7,1.1,7.6,1.1c1.8,0,3.2-0.3,4.1-0.8c1-0.5,1.4-1.2,1.4-2.1c0-0.8-0.3-1.5-1-1.9
			c-0.7-0.5-1.9-0.8-3.5-1.1l-2.6-0.5c-5.1-1-8.8-2.5-11.3-4.7c-2.5-2.1-3.7-5.2-3.7-9.1c0-2.2,0.5-4.1,1.4-5.9
			c0.9-1.7,2.2-3.2,3.9-4.4c1.7-1.2,3.7-2.1,6.1-2.7c2.4-0.6,5-1,7.8-1c2.2,0,4.2,0.2,6.1,0.5c1.9,0.3,3.5,0.8,4.9,1.4
			c1.4,0.6,2.5,1.5,3.3,2.5c0.8,1,1.2,2.2,1.2,3.6c0,1.3-0.2,2.5-0.7,3.4c-0.5,1-1.1,1.8-1.9,2.4c-0.5-0.3-1.2-0.6-2.1-0.9
			c-0.9-0.3-2-0.6-3.1-0.9c-1.1-0.3-2.2-0.5-3.4-0.7c-1.1-0.2-2.2-0.3-3.1-0.3c-1.9,0-3.4,0.2-4.5,0.7c-1,0.4-1.6,1.1-1.6,2.1
			c0,0.6,0.3,1.2,0.9,1.6c0.6,0.4,1.7,0.8,3.3,1.1l2.7,0.6c5.6,1.3,9.6,3,11.9,5.3C578.6,58.1,579.8,61,579.8,64.5z"/>
	</g>
</g>
</svg>
