<?xml version="1.0" encoding="utf-8"?>
<!-- Generator: Adobe Illustrator 23.0.0, SVG Export Plug-In . SVG Version: 6.00 Build 0)  -->
<svg version="1.1" id="Camada_1" fill="#fff" xmlns="http://www.w3.org/2000/svg" xmlns:xlink="http://www.w3.org/1999/xlink" x="0px" y="0px"
	 viewBox="0 0 100 100" style="enable-background:new 0 0 100 100;" xml:space="preserve">
<style type="text/css">
	.st0{fill:none;}
</style>
<g>
	<path d="M91.1,38.5c-1.7-3.7-5.8-10.1-13.4-8l-23.9-0.1V1.6c17,0.5,37.3,6.6,38.2,36.6C92.1,38.8,91.3,38.9,91.1,38.5"/>
	<path d="M77.9,35c0,7.8-6.9,14.8-15.5,14.8c-0.1,0-8.5,0.1-8.5,0.1V33L77.7,33C77.8,33.7,77.9,34.3,77.9,35"/>
	<path d="M51.3,88c-32.3-6-33-35.5-33-35.5h-13c0,23.6,19.8,46.2,46,46.2c21.6,0,38-12.5,44.3-24.2C90.6,81.2,76.1,92.6,51.3,88"/>
	<line class="st0" x1="18.3" y1="50" x2="18.3" y2="50"/>
	<path d="M56.4,52.6c-0.8,0-1.7-0.1-2.5-0.1c0,0,0,0,0,0h-33c0,0,0.7,29.5,33,35.5c24.8,4.6,36.8-6.8,41.9-13.4l0,0
		C86.1,59.9,69.3,53.4,56.4,52.6"/>
	<path d="M51.3,1.6C25.8,1.8,4.7,23,5.3,49.9h46L51.3,1.6z M28.8,22.9c0.4-6.4,9-5.8,9.1,0C37.5,29.3,28.9,28.7,28.8,22.9"/>
</g>
</svg>
