<?xml version="1.0" encoding="utf-8"?>
<!-- Generator: Adobe Illustrator 23.0.0, SVG Export Plug-In . SVG Version: 6.00 Build 0)  -->
<svg version="1.1" id="Camada_1" xmlns="http://www.w3.org/2000/svg" xmlns:xlink="http://www.w3.org/1999/xlink" x="0px" y="0px"
	 viewBox="0 0 583 112" style="enable-background:new 0 0 583 112;" xml:space="preserve">
<style type="text/css">
	.st0{fill:#5D7477;}
	.st1{fill:#4A5759;}
	.st2{fill:#00BC2D;}
	.st3{fill:#FF4400;}
	.st4{fill:#00891D;}
</style>
<g>
	<path class="st0" d="M105.88,43.97c-1.98-4.36-6.73-11.79-15.62-9.28l-27.9-0.07V1.01c19.84,0.6,43.52,7.64,44.63,42.69
		C107.01,44.33,106.14,44.54,105.88,43.97"/>
	<path class="st1" d="M90.45,37.28c0,10.01-8.11,19.15-18.11,19.15c-0.1,0-9.97,0.07-9.97,0.07l0-21.88l27.9,0.07
		C90.39,35.53,90.45,36.4,90.45,37.28"/>
	<path class="st2" d="M62.36,1.01C32.62,1.22,8,25.5,8.71,56.5h53.66L62.36,1.01z M36.11,25.41c0.45-7.35,10.44-6.67,10.6,0
		C46.26,32.76,36.27,32.06,36.11,25.41"/>
	<path class="st3" d="M62.37,97.92c28.97,5.38,42.91-7.88,48.91-15.7c-0.2-0.18-13.52-25.14-48.91-25.72l-35.58,0.28
		C26.79,56.78,24.69,90.92,62.37,97.92"/>
	<path class="st2" d="M63.3,56.54c0.69,0.02,1.38,0.04,2.06,0.08C64.66,56.57,63.98,56.56,63.3,56.54"/>
	<path class="st4" d="M62.37,97.92c-37.67-7-35.58-41.4-35.58-41.42H8.72c0,27.5,23.08,53.95,53.74,53.95
		c25.24,0,41.45-14.64,48.81-28.23C105.28,90.04,91.33,103.3,62.37,97.92"/>
	<path class="st2" d="M62.37,97.92c-37.67-7-38.53-41.4-38.53-41.42H8.72c0,27.5,23.08,53.95,53.74,53.95
		c25.24,0,41.45-14.64,48.81-28.23C105.28,90.04,91.33,103.3,62.37,97.92"/>
	<path class="st2" d="M154.86,33.47c2.35,0,4.66,0.33,6.93,0.99c2.27,0.66,4.23,1.65,5.9,2.97c1.72-1.15,3.66-2.1,5.81-2.84
		c2.15-0.74,4.75-1.12,7.79-1.12c2.18,0,4.32,0.29,6.42,0.86c2.09,0.57,3.96,1.48,5.6,2.71c1.64,1.24,2.94,2.87,3.92,4.91
		c0.98,2.04,1.47,4.52,1.47,7.45v27.13c-0.57,0.17-1.48,0.34-2.71,0.52c-1.24,0.17-2.51,0.26-3.83,0.26c-1.26,0-2.4-0.09-3.4-0.26
		c-1.01-0.17-1.85-0.52-2.54-1.03c-0.69-0.52-1.22-1.22-1.59-2.11c-0.37-0.89-0.56-2.05-0.56-3.49V49.83c0-1.72-0.49-2.97-1.46-3.75
		c-0.98-0.77-2.3-1.16-3.96-1.16c-0.81,0-1.67,0.19-2.58,0.56c-0.92,0.37-1.61,0.76-2.07,1.16c0.06,0.23,0.09,0.45,0.09,0.65v0.56
		v28.68c-0.63,0.17-1.56,0.34-2.8,0.52c-1.24,0.17-2.48,0.26-3.75,0.26c-1.26,0-2.4-0.09-3.4-0.26c-1.01-0.17-1.85-0.52-2.54-1.03
		c-0.69-0.52-1.22-1.22-1.59-2.11c-0.37-0.89-0.56-2.05-0.56-3.49V49.83c0-1.72-0.53-2.97-1.59-3.75c-1.06-0.77-2.34-1.16-3.83-1.16
		c-1.03,0-1.92,0.16-2.67,0.47c-0.75,0.32-1.38,0.62-1.9,0.9v30.23c-0.57,0.17-1.48,0.34-2.71,0.52c-1.24,0.17-2.51,0.26-3.83,0.26
		c-1.26,0-2.4-0.09-3.4-0.26c-1.01-0.17-1.85-0.52-2.54-1.03c-0.69-0.52-1.22-1.22-1.59-2.11c-0.37-0.89-0.56-2.05-0.56-3.49V44.41
		c0-1.55,0.33-2.78,0.99-3.7c0.66-0.92,1.56-1.78,2.71-2.58c1.95-1.38,4.38-2.5,7.28-3.36C148.68,33.9,151.71,33.47,154.86,33.47"/>
	<path class="st2" d="M221.44,33.47c3.1,0,5.93,0.32,8.48,0.95c2.55,0.63,4.74,1.59,6.55,2.88c1.81,1.29,3.2,2.93,4.18,4.91
		c0.97,1.98,1.46,4.32,1.46,7.02v19.29c0,1.49-0.42,2.71-1.25,3.66c-0.83,0.95-1.82,1.77-2.97,2.45c-3.73,2.24-8.99,3.36-15.76,3.36
		c-3.04,0-5.78-0.29-8.23-0.86c-2.44-0.57-4.54-1.44-6.29-2.58c-1.75-1.15-3.1-2.61-4.05-4.39c-0.95-1.78-1.42-3.85-1.42-6.2
		c0-3.96,1.18-7,3.53-9.13c2.35-2.12,6-3.44,10.94-3.96l11.28-1.21v-0.6c0-1.67-0.73-2.86-2.2-3.57c-1.46-0.72-3.57-1.08-6.33-1.08
		c-2.18,0-4.31,0.23-6.37,0.69c-2.07,0.46-3.93,1.04-5.6,1.72c-0.75-0.52-1.38-1.3-1.89-2.37c-0.52-1.06-0.77-2.17-0.77-3.32
		c0-1.49,0.36-2.68,1.08-3.57c0.72-0.89,1.82-1.65,3.32-2.28c1.66-0.63,3.63-1.09,5.9-1.38C217.29,33.61,219.43,33.47,221.44,33.47
		 M222.13,67.32c0.97,0,2.05-0.1,3.23-0.3c1.18-0.2,2.05-0.47,2.63-0.82v-6.89l-6.2,0.52c-1.61,0.12-2.93,0.46-3.96,1.03
		c-1.03,0.57-1.55,1.44-1.55,2.58c0,1.15,0.45,2.08,1.34,2.8C218.49,66.96,220,67.32,222.13,67.32"/>
	<path class="st2" d="M262.26,76.53c-0.57,0.17-1.48,0.34-2.71,0.52c-1.24,0.17-2.51,0.26-3.83,0.26c-1.26,0-2.4-0.09-3.4-0.26
		c-1.01-0.17-1.85-0.52-2.54-1.03c-0.69-0.52-1.22-1.22-1.59-2.11c-0.37-0.89-0.56-2.05-0.56-3.49V44.58c0-1.32,0.24-2.45,0.73-3.4
		c0.49-0.95,1.19-1.79,2.11-2.54c0.92-0.75,2.05-1.42,3.4-2.03c1.35-0.6,2.8-1.13,4.35-1.59c1.55-0.46,3.16-0.82,4.82-1.08
		c1.67-0.26,3.33-0.39,4.99-0.39c2.76,0,4.94,0.53,6.54,1.59c1.61,1.06,2.41,2.8,2.41,5.21c0,0.8-0.12,1.59-0.34,2.37
		c-0.23,0.78-0.52,1.48-0.86,2.11c-1.21,0-2.44,0.06-3.7,0.17c-1.26,0.12-2.5,0.29-3.7,0.52c-1.21,0.23-2.34,0.47-3.4,0.73
		c-1.06,0.26-1.97,0.56-2.71,0.9V76.53z"/>
	<path class="st2" d="M295.5,33.47c3.1,0,5.93,0.32,8.48,0.95c2.55,0.63,4.74,1.59,6.54,2.88c1.81,1.29,3.2,2.93,4.18,4.91
		c0.98,1.98,1.46,4.32,1.46,7.02v19.29c0,1.49-0.42,2.71-1.25,3.66c-0.83,0.95-1.82,1.77-2.97,2.45c-3.73,2.24-8.99,3.36-15.76,3.36
		c-3.04,0-5.79-0.29-8.23-0.86c-2.44-0.57-4.53-1.44-6.29-2.58c-1.75-1.15-3.1-2.61-4.05-4.39c-0.95-1.78-1.42-3.85-1.42-6.2
		c0-3.96,1.18-7,3.53-9.13c2.35-2.12,6-3.44,10.94-3.96l11.28-1.21v-0.6c0-1.67-0.73-2.86-2.2-3.57c-1.47-0.72-3.57-1.08-6.33-1.08
		c-2.18,0-4.31,0.23-6.37,0.69c-2.07,0.46-3.93,1.04-5.6,1.72c-0.75-0.52-1.38-1.3-1.9-2.37c-0.52-1.06-0.77-2.17-0.77-3.32
		c0-1.49,0.36-2.68,1.08-3.57c0.72-0.89,1.82-1.65,3.32-2.28c1.66-0.63,3.63-1.09,5.9-1.38C291.35,33.61,293.49,33.47,295.5,33.47
		 M296.19,67.32c0.98,0,2.05-0.1,3.23-0.3c1.18-0.2,2.05-0.47,2.63-0.82v-6.89l-6.2,0.52c-1.61,0.12-2.93,0.46-3.96,1.03
		c-1.03,0.57-1.55,1.44-1.55,2.58c0,1.15,0.44,2.08,1.33,2.8C292.56,66.96,294.07,67.32,296.19,67.32"/>
	<path class="st2" d="M345.28,45.01c-1.44,0-2.8,0.23-4.09,0.69c-1.29,0.46-2.41,1.13-3.36,2.02c-0.95,0.89-1.71,2-2.28,3.32
		c-0.57,1.32-0.86,2.87-0.86,4.65c0,3.56,1.02,6.23,3.06,8.01c2.04,1.78,4.52,2.67,7.45,2.67c1.72,0,3.21-0.2,4.48-0.6
		c1.26-0.4,2.38-0.83,3.36-1.29c1.15,0.81,2.01,1.68,2.58,2.63c0.57,0.95,0.86,2.08,0.86,3.4c0,2.35-1.12,4.18-3.36,5.47
		c-2.24,1.29-5.34,1.94-9.3,1.94c-3.62,0-6.89-0.53-9.82-1.59c-2.93-1.06-5.44-2.55-7.54-4.48c-2.1-1.92-3.72-4.23-4.87-6.93
		c-1.15-2.7-1.72-5.68-1.72-8.96c0-3.79,0.62-7.1,1.85-9.95c1.23-2.84,2.91-5.18,5.04-7.02c2.12-1.84,4.58-3.22,7.36-4.13
		c2.78-0.92,5.73-1.38,8.83-1.38c4.13,0,7.32,0.75,9.56,2.24c2.24,1.49,3.36,3.42,3.36,5.77c0,1.09-0.26,2.11-0.77,3.06
		c-0.52,0.95-1.12,1.77-1.81,2.46c-0.98-0.46-2.15-0.9-3.53-1.34C348.38,45.23,346.89,45.01,345.28,45.01"/>
	<path class="st2" d="M377.58,33.47c3.1,0,5.93,0.32,8.48,0.95c2.55,0.63,4.74,1.59,6.54,2.88c1.81,1.29,3.2,2.93,4.18,4.91
		c0.98,1.98,1.47,4.32,1.47,7.02v19.29c0,1.49-0.42,2.71-1.25,3.66c-0.83,0.95-1.82,1.77-2.97,2.45c-3.73,2.24-8.99,3.36-15.76,3.36
		c-3.04,0-5.79-0.29-8.23-0.86c-2.44-0.57-4.53-1.44-6.29-2.58c-1.75-1.15-3.1-2.61-4.05-4.39c-0.95-1.78-1.42-3.85-1.42-6.2
		c0-3.96,1.18-7,3.53-9.13c2.35-2.12,6-3.44,10.94-3.96l11.28-1.21v-0.6c0-1.67-0.73-2.86-2.2-3.57c-1.47-0.72-3.57-1.08-6.33-1.08
		c-2.18,0-4.31,0.23-6.37,0.69c-2.07,0.46-3.93,1.04-5.6,1.72c-0.75-0.52-1.38-1.3-1.9-2.37c-0.52-1.06-0.77-2.17-0.77-3.32
		c0-1.49,0.36-2.68,1.08-3.57c0.72-0.89,1.82-1.65,3.32-2.28c1.66-0.63,3.63-1.09,5.9-1.38C373.43,33.61,375.57,33.47,377.58,33.47
		 M378.26,67.32c0.98,0,2.05-0.1,3.23-0.3c1.18-0.2,2.05-0.47,2.63-0.82v-6.89l-6.2,0.52c-1.61,0.12-2.93,0.46-3.96,1.03
		c-1.03,0.57-1.55,1.44-1.55,2.58c0,1.15,0.44,2.08,1.33,2.8C374.63,66.96,376.14,67.32,378.26,67.32"/>
	<path class="st2" d="M430.28,50.09c0-1.78-0.5-3.09-1.51-3.92c-1.01-0.83-2.37-1.25-4.09-1.25c-1.15,0-2.28,0.14-3.4,0.43
		c-1.12,0.29-2.08,0.72-2.89,1.29v29.88c-0.57,0.17-1.48,0.35-2.71,0.52c-1.24,0.17-2.51,0.26-3.83,0.26c-1.26,0-2.4-0.08-3.4-0.26
		c-1.01-0.17-1.85-0.52-2.54-1.03c-0.69-0.52-1.22-1.22-1.6-2.11c-0.37-0.89-0.56-2.05-0.56-3.49V44.58c0-1.55,0.33-2.81,0.99-3.79
		c0.66-0.98,1.56-1.87,2.71-2.67c1.95-1.38,4.41-2.5,7.36-3.36c2.96-0.86,6.24-1.29,9.86-1.29c6.49,0,11.48,1.42,14.99,4.26
		c3.5,2.84,5.25,6.79,5.25,11.84v26.96c-0.57,0.17-1.48,0.35-2.71,0.52c-1.24,0.17-2.51,0.26-3.83,0.26c-1.26,0-2.4-0.08-3.4-0.26
		c-1.01-0.17-1.85-0.52-2.54-1.03s-1.22-1.22-1.59-2.11c-0.37-0.89-0.56-2.05-0.56-3.49V50.09z"/>
	<path class="st2" d="M467.74,33.47c3.1,0,5.93,0.32,8.48,0.95c2.55,0.63,4.74,1.59,6.54,2.88c1.81,1.29,3.2,2.93,4.18,4.91
		c0.98,1.98,1.46,4.32,1.46,7.02v19.29c0,1.49-0.42,2.71-1.25,3.66c-0.83,0.95-1.82,1.77-2.97,2.45c-3.73,2.24-8.99,3.36-15.76,3.36
		c-3.04,0-5.78-0.29-8.23-0.86c-2.44-0.57-4.53-1.44-6.29-2.58c-1.75-1.15-3.1-2.61-4.05-4.39c-0.95-1.78-1.42-3.85-1.42-6.2
		c0-3.96,1.18-7,3.53-9.13c2.35-2.12,6-3.44,10.94-3.96l11.28-1.21v-0.6c0-1.67-0.73-2.86-2.2-3.57c-1.46-0.72-3.57-1.08-6.33-1.08
		c-2.18,0-4.31,0.23-6.37,0.69c-2.07,0.46-3.93,1.04-5.6,1.72c-0.75-0.52-1.38-1.3-1.9-2.37c-0.52-1.06-0.77-2.17-0.77-3.32
		c0-1.49,0.36-2.68,1.08-3.57c0.72-0.89,1.82-1.65,3.32-2.28c1.66-0.63,3.63-1.09,5.9-1.38C463.6,33.61,465.73,33.47,467.74,33.47
		 M468.43,67.32c0.98,0,2.05-0.1,3.23-0.3c1.18-0.2,2.05-0.47,2.63-0.82v-6.89l-6.2,0.52c-1.61,0.12-2.93,0.46-3.96,1.03
		c-1.03,0.57-1.55,1.44-1.55,2.58c0,1.15,0.44,2.08,1.33,2.8C464.8,66.96,466.31,67.32,468.43,67.32"/>
	<path class="st2" d="M520.45,50.09c0-1.78-0.5-3.09-1.51-3.92c-1.01-0.83-2.37-1.25-4.09-1.25c-1.15,0-2.28,0.14-3.4,0.43
		c-1.12,0.29-2.08,0.72-2.88,1.29v29.88c-0.58,0.17-1.48,0.35-2.71,0.52c-1.24,0.17-2.51,0.26-3.83,0.26c-1.26,0-2.4-0.08-3.4-0.26
		c-1.01-0.17-1.85-0.52-2.54-1.03c-0.69-0.52-1.22-1.22-1.6-2.11c-0.37-0.89-0.56-2.05-0.56-3.49V44.58c0-1.55,0.33-2.81,0.99-3.79
		c0.66-0.98,1.56-1.87,2.71-2.67c1.95-1.38,4.41-2.5,7.36-3.36c2.96-0.86,6.24-1.29,9.86-1.29c6.49,0,11.48,1.42,14.99,4.26
		c3.5,2.84,5.25,6.79,5.25,11.84v26.96c-0.57,0.17-1.48,0.35-2.71,0.52c-1.24,0.17-2.51,0.26-3.83,0.26c-1.26,0-2.4-0.08-3.4-0.26
		c-1.01-0.17-1.85-0.52-2.54-1.03s-1.22-1.22-1.59-2.11c-0.37-0.89-0.56-2.05-0.56-3.49V50.09z"/>
	<path class="st2" d="M576,64.13c0,4.36-1.64,7.78-4.91,10.25c-3.27,2.47-8.09,3.7-14.47,3.7c-2.41,0-4.65-0.17-6.72-0.52
		s-3.83-0.88-5.3-1.59s-2.61-1.62-3.45-2.71c-0.83-1.09-1.25-2.38-1.25-3.88c0-1.38,0.29-2.54,0.86-3.49
		c0.57-0.95,1.26-1.73,2.07-2.37c1.66,0.92,3.57,1.74,5.73,2.46c2.15,0.72,4.63,1.08,7.45,1.08c1.78,0,3.14-0.26,4.09-0.77
		c0.95-0.52,1.42-1.21,1.42-2.07c0-0.8-0.34-1.43-1.03-1.89c-0.69-0.46-1.84-0.83-3.44-1.12l-2.58-0.52
		c-5-0.97-8.71-2.51-11.15-4.61c-2.44-2.1-3.66-5.1-3.66-9c0-2.12,0.46-4.05,1.38-5.77c0.92-1.72,2.21-3.16,3.87-4.31
		c1.67-1.15,3.66-2.04,5.99-2.67c2.33-0.63,4.89-0.95,7.71-0.95c2.12,0,4.12,0.16,5.98,0.47c1.87,0.32,3.49,0.79,4.87,1.42
		c1.38,0.63,2.47,1.45,3.27,2.45c0.8,1.01,1.21,2.2,1.21,3.57c0,1.32-0.25,2.45-0.73,3.4c-0.49,0.95-1.11,1.74-1.85,2.37
		c-0.46-0.29-1.15-0.59-2.07-0.9c-0.92-0.32-1.92-0.6-3.01-0.86c-1.09-0.26-2.2-0.48-3.32-0.65c-1.12-0.17-2.14-0.26-3.06-0.26
		c-1.89,0-3.36,0.22-4.39,0.65c-1.04,0.43-1.55,1.11-1.55,2.02c0,0.63,0.29,1.15,0.86,1.55c0.57,0.4,1.66,0.78,3.27,1.12l2.67,0.6
		c5.51,1.26,9.43,3,11.76,5.21C574.84,57.77,576,60.63,576,64.13"/>
</g>
</svg>
